<svg xmlns="http://www.w3.org/2000/svg" viewBox="0 0 640 400" role="img" aria-label="Rich theme preview">
  <rect width="640" height="400" fill="#f2eee5"/>
  <rect x="38" y="30" width="564" height="340" rx="4" fill="#fbfaf6" stroke="#d4cec1"/>
  <path d="M66 74H574" stroke="#aaa397"/>
  <text x="66" y="58" fill="#5e5c55" font-family="Avenir Next,Arial,sans-serif" font-size="9" font-weight="700" letter-spacing="1.4">RICH / EDITORIAL WORKSPACE</text>
  <text x="66" y="132" fill="#1d1d1a" font-family="Iowan Old Style,Georgia,serif" font-size="47" font-weight="600">Dense ideas,</text>
  <text x="66" y="176" fill="#2d57a1" font-family="Iowan Old Style,Georgia,serif" font-size="47" font-style="italic">clearly arranged.</text>
  <path d="M66 206H574" stroke="#d4cec1"/>
  <rect x="66" y="230" width="220" height="100" rx="3" fill="#ffffff" stroke="#d4cec1"/>
  <path d="M84 254H196M84 276H264M84 296H236M84 314H250" stroke="#817e74" stroke-width="5" stroke-linecap="round"/>
  <rect x="308" y="230" width="266" height="100" rx="3" fill="#ffffff" stroke="#d4cec1"/>
  <path d="M328 310H554M328 286H554M328 262H554" stroke="#d4cec1"/>
  <path d="M338 310V294M378 310V272M418 310V288M458 310V250M498 310V280M538 310V260" stroke="#2d57a1" stroke-width="8"/>
  <rect x="66" y="345" width="54" height="3" fill="#2d57a1"/>
</svg>
